<svg xmlns="http://www.w3.org/2000/svg" width="12" height="12" viewBox="0 0 12 12" fill="none">
  <path d="M6.5001 5C7.05235 5 7.50031 5.44796 7.50031 6.00021C7.50024 6.55239 7.0523 7 6.5001 7C5.94797 6.99992 5.50039 6.55234 5.50031 6.00021C5.50031 5.44801 5.94792 5.00008 6.5001 5Z" fill="#4E5969"/>
  <path d="M9.99979 5C10.552 5 11 5.44796 11 6.00021C10.9999 6.55239 10.552 7 9.99979 7C9.44765 6.99992 9.00008 6.55234 9 6.00021C9 5.44801 9.44761 5.00008 9.99979 5Z" fill="#4E5969"/>
  <path d="M3.00031 5C3.55256 5 4.00052 5.44796 4.00052 6.00021C4.00045 6.55239 3.55251 7 3.00031 7C2.44818 6.99992 2.0006 6.55234 2.00052 6.00021C2.00052 5.44801 2.44813 5.00008 3.00031 5Z" fill="#4E5969"/>
</svg>